<svg width="50" height="50" viewBox="0 0 50 50" fill="none" xmlns="http://www.w3.org/2000/svg">
<g id="add 1">
<path id="Vector" d="M8.33333 47.9167H41.6667C42.2192 47.9167 42.7491 47.6972 43.1398 47.3065C43.5305 46.9158 43.75 46.3859 43.75 45.8334V12.5C43.7499 11.9476 43.5303 11.4177 43.1396 11.0271L34.8063 2.69379C34.4156 2.30306 33.8858 2.08349 33.3333 2.08337H8.33333C7.7808 2.08337 7.25089 2.30287 6.86019 2.69357C6.46949 3.08427 6.25 3.61417 6.25 4.16671V45.8334C6.25 46.3859 6.46949 46.9158 6.86019 47.3065C7.25089 47.6972 7.7808 47.9167 8.33333 47.9167ZM10.4167 6.25004H32.4708L39.5833 13.3625V43.75H10.4167V6.25004ZM33.3333 25C33.3333 25.5526 33.1138 26.0825 32.7231 26.4732C32.3324 26.8639 31.8025 27.0834 31.25 27.0834H27.0833V31.25C27.0833 31.8026 26.8638 32.3325 26.4731 32.7232C26.0824 33.1139 25.5525 33.3334 25 33.3334C24.4475 33.3334 23.9176 33.1139 23.5269 32.7232C23.1362 32.3325 22.9167 31.8026 22.9167 31.25V27.0834H18.75C18.1975 27.0834 17.6676 26.8639 17.2769 26.4732C16.8862 26.0825 16.6667 25.5526 16.6667 25C16.6667 24.4475 16.8862 23.9176 17.2769 23.5269C17.6676 23.1362 18.1975 22.9167 18.75 22.9167H22.9167V18.75C22.9167 18.1975 23.1362 17.6676 23.5269 17.2769C23.9176 16.8862 24.4475 16.6667 25 16.6667C25.5525 16.6667 26.0824 16.8862 26.4731 17.2769C26.8638 17.6676 27.0833 18.1975 27.0833 18.75V22.9167H31.25C31.8025 22.9167 32.3324 23.1362 32.7231 23.5269C33.1138 23.9176 33.3333 24.4475 33.3333 25Z" fill="url(#paint0_linear_148_14)"/>
</g>
<defs>
<linearGradient id="paint0_linear_148_14" x1="25" y1="2.08337" x2="25" y2="47.9167" gradientUnits="userSpaceOnUse">
<stop stop-color="#001449"/>
<stop offset="1" stop-color="#490035"/>
</linearGradient>
</defs>
</svg>
