<svg width="50" height="50" viewBox="0 0 50 50" fill="none" xmlns="http://www.w3.org/2000/svg">
<g id="calendar 1" clip-path="url(#clip0_133_10)">
<g id="Group">
<path id="Vector" d="M8.59375 42.1875H13.2812C13.7133 42.1875 14.0625 41.8383 14.0625 41.4062V37.5C14.0625 37.068 13.7133 36.7188 13.2812 36.7188H8.59375C8.16172 36.7188 7.8125 37.068 7.8125 37.5V41.4062C7.8125 41.8383 8.16172 42.1875 8.59375 42.1875ZM9.375 38.2812H12.5V40.625H9.375V38.2812Z" fill="url(#paint0_linear_133_10)"/>
<path id="Vector_2" d="M17.9688 42.1875H22.6562C23.0883 42.1875 23.4375 41.8383 23.4375 41.4062V37.5C23.4375 37.068 23.0883 36.7188 22.6562 36.7188H17.9688C17.5367 36.7188 17.1875 37.068 17.1875 37.5V41.4062C17.1875 41.8383 17.5367 42.1875 17.9688 42.1875ZM18.75 38.2812H21.875V40.625H18.75V38.2812Z" fill="url(#paint1_linear_133_10)"/>
<path id="Vector_3" d="M27.3438 42.1875H32.0312C32.4633 42.1875 32.8125 41.8383 32.8125 41.4062V37.5C32.8125 37.068 32.4633 36.7188 32.0312 36.7188H27.3438C26.9117 36.7188 26.5625 37.068 26.5625 37.5V41.4062C26.5625 41.8383 26.9117 42.1875 27.3438 42.1875ZM28.125 38.2812H31.25V40.625H28.125V38.2812Z" fill="url(#paint2_linear_133_10)"/>
<path id="Vector_4" d="M8.59375 33.5938H13.2812C13.7133 33.5938 14.0625 33.2445 14.0625 32.8125V28.9062C14.0625 28.4742 13.7133 28.125 13.2812 28.125H8.59375C8.16172 28.125 7.8125 28.4742 7.8125 28.9062V32.8125C7.8125 33.2445 8.16172 33.5938 8.59375 33.5938ZM9.375 29.6875H12.5V32.0312H9.375V29.6875Z" fill="url(#paint3_linear_133_10)"/>
<path id="Vector_5" d="M17.9688 33.5938H22.6562C23.0883 33.5938 23.4375 33.2445 23.4375 32.8125V28.9062C23.4375 28.4742 23.0883 28.125 22.6562 28.125H17.9688C17.5367 28.125 17.1875 28.4742 17.1875 28.9062V32.8125C17.1875 33.2445 17.5367 33.5938 17.9688 33.5938ZM18.75 29.6875H21.875V32.0312H18.75V29.6875Z" fill="url(#paint4_linear_133_10)"/>
<path id="Vector_6" d="M27.3438 33.5938H32.0312C32.4633 33.5938 32.8125 33.2445 32.8125 32.8125V28.9062C32.8125 28.4742 32.4633 28.125 32.0312 28.125H27.3438C26.9117 28.125 26.5625 28.4742 26.5625 28.9062V32.8125C26.5625 33.2445 26.9117 33.5938 27.3438 33.5938ZM28.125 29.6875H31.25V32.0312H28.125V29.6875Z" fill="url(#paint5_linear_133_10)"/>
<path id="Vector_7" d="M36.7188 33.5938H41.4062C41.8383 33.5938 42.1875 33.2445 42.1875 32.8125V28.9062C42.1875 28.4742 41.8383 28.125 41.4062 28.125H36.7188C36.2867 28.125 35.9375 28.4742 35.9375 28.9062V32.8125C35.9375 33.2445 36.2867 33.5938 36.7188 33.5938ZM37.5 29.6875H40.625V32.0312H37.5V29.6875Z" fill="url(#paint6_linear_133_10)"/>
<path id="Vector_8" d="M8.59375 25H13.2812C13.7133 25 14.0625 24.6508 14.0625 24.2188V20.3125C14.0625 19.8805 13.7133 19.5312 13.2812 19.5312H8.59375C8.16172 19.5312 7.8125 19.8805 7.8125 20.3125V24.2188C7.8125 24.6508 8.16172 25 8.59375 25ZM9.375 21.0938H12.5V23.4375H9.375V21.0938Z" fill="url(#paint7_linear_133_10)"/>
<path id="Vector_9" d="M17.9688 25H22.6562C23.0883 25 23.4375 24.6508 23.4375 24.2188V20.3125C23.4375 19.8805 23.0883 19.5312 22.6562 19.5312H17.9688C17.5367 19.5312 17.1875 19.8805 17.1875 20.3125V24.2188C17.1875 24.6508 17.5367 25 17.9688 25ZM18.75 21.0938H21.875V23.4375H18.75V21.0938Z" fill="url(#paint8_linear_133_10)"/>
<path id="Vector_10" d="M27.3438 25H32.0312C32.4633 25 32.8125 24.6508 32.8125 24.2188V20.3125C32.8125 19.8805 32.4633 19.5312 32.0312 19.5312H27.3438C26.9117 19.5312 26.5625 19.8805 26.5625 20.3125V24.2188C26.5625 24.6508 26.9117 25 27.3438 25ZM28.125 21.0938H31.25V23.4375H28.125V21.0938Z" fill="url(#paint9_linear_133_10)"/>
<path id="Vector_11" d="M36.7188 25H41.4062C41.8383 25 42.1875 24.6508 42.1875 24.2188V20.3125C42.1875 19.8805 41.8383 19.5312 41.4062 19.5312H36.7188C36.2867 19.5312 35.9375 19.8805 35.9375 20.3125V24.2188C35.9375 24.6508 36.2867 25 36.7188 25ZM37.5 21.0938H40.625V23.4375H37.5V21.0938Z" fill="url(#paint10_linear_133_10)"/>
<path id="Vector_12" d="M46.875 3.125H41.4062V2.34375C41.4062 1.04922 40.357 0 39.0625 0C37.768 0 36.7188 1.04922 36.7188 2.34375V3.125H13.2812V2.34375C13.2812 1.04922 12.232 0 10.9375 0C9.64297 0 8.59375 1.04922 8.59375 2.34375V3.125H3.125C1.39766 3.125 0 4.52266 0 6.25V46.875C0 48.6023 1.39766 50 3.125 50H46.875C48.6023 50 50 48.6023 50 46.875V6.25C50 4.52266 48.6023 3.125 46.875 3.125ZM38.2812 2.34375C38.2812 1.91172 38.6305 1.5625 39.0625 1.5625C39.4945 1.5625 39.8438 1.91172 39.8438 2.34375V4.6875V7.8125C39.8438 8.24453 39.4945 8.59375 39.0625 8.59375C38.6305 8.59375 38.2812 8.24453 38.2812 7.8125V4.6875V2.34375ZM10.1562 2.34375C10.1562 1.91172 10.5055 1.5625 10.9375 1.5625C11.3695 1.5625 11.7188 1.91172 11.7188 2.34375V4.6875V7.8125C11.7188 8.24453 11.3695 8.59375 10.9375 8.59375C10.5055 8.59375 10.1562 8.24453 10.1562 7.8125V4.6875V2.34375ZM48.4375 46.875C48.4375 47.7375 47.7375 48.4375 46.875 48.4375H3.125C2.2625 48.4375 1.5625 47.7375 1.5625 46.875V13.2812H48.4375V46.875ZM48.4375 11.7188H1.5625V6.25C1.5625 5.3875 2.2625 4.6875 3.125 4.6875H8.59375V7.8125C8.59375 9.10703 9.64297 10.1562 10.9375 10.1562C12.232 10.1562 13.2812 9.10703 13.2812 7.8125V4.6875H36.7188V7.8125C36.7188 9.10703 37.768 10.1562 39.0625 10.1562C40.357 10.1562 41.4062 9.10703 41.4062 7.8125V4.6875H46.875C47.7375 4.6875 48.4375 5.3875 48.4375 6.25V11.7188Z" fill="url(#paint11_linear_133_10)"/>
</g>
</g>
<defs>
<linearGradient id="paint0_linear_133_10" x1="10.9375" y1="36.7188" x2="10.9375" y2="42.1875" gradientUnits="userSpaceOnUse">
<stop stop-color="#001449"/>
<stop offset="1" stop-color="#490035"/>
</linearGradient>
<linearGradient id="paint1_linear_133_10" x1="20.3125" y1="36.7188" x2="20.3125" y2="42.1875" gradientUnits="userSpaceOnUse">
<stop stop-color="#001449"/>
<stop offset="1" stop-color="#490035"/>
</linearGradient>
<linearGradient id="paint2_linear_133_10" x1="29.6875" y1="36.7188" x2="29.6875" y2="42.1875" gradientUnits="userSpaceOnUse">
<stop stop-color="#001449"/>
<stop offset="1" stop-color="#490035"/>
</linearGradient>
<linearGradient id="paint3_linear_133_10" x1="10.9375" y1="28.125" x2="10.9375" y2="33.5938" gradientUnits="userSpaceOnUse">
<stop stop-color="#001449"/>
<stop offset="1" stop-color="#490035"/>
</linearGradient>
<linearGradient id="paint4_linear_133_10" x1="20.3125" y1="28.125" x2="20.3125" y2="33.5938" gradientUnits="userSpaceOnUse">
<stop stop-color="#001449"/>
<stop offset="1" stop-color="#490035"/>
</linearGradient>
<linearGradient id="paint5_linear_133_10" x1="29.6875" y1="28.125" x2="29.6875" y2="33.5938" gradientUnits="userSpaceOnUse">
<stop stop-color="#001449"/>
<stop offset="1" stop-color="#490035"/>
</linearGradient>
<linearGradient id="paint6_linear_133_10" x1="39.0625" y1="28.125" x2="39.0625" y2="33.5938" gradientUnits="userSpaceOnUse">
<stop stop-color="#001449"/>
<stop offset="1" stop-color="#490035"/>
</linearGradient>
<linearGradient id="paint7_linear_133_10" x1="10.9375" y1="19.5312" x2="10.9375" y2="25" gradientUnits="userSpaceOnUse">
<stop stop-color="#001449"/>
<stop offset="1" stop-color="#490035"/>
</linearGradient>
<linearGradient id="paint8_linear_133_10" x1="20.3125" y1="19.5312" x2="20.3125" y2="25" gradientUnits="userSpaceOnUse">
<stop stop-color="#001449"/>
<stop offset="1" stop-color="#490035"/>
</linearGradient>
<linearGradient id="paint9_linear_133_10" x1="29.6875" y1="19.5312" x2="29.6875" y2="25" gradientUnits="userSpaceOnUse">
<stop stop-color="#001449"/>
<stop offset="1" stop-color="#490035"/>
</linearGradient>
<linearGradient id="paint10_linear_133_10" x1="39.0625" y1="19.5312" x2="39.0625" y2="25" gradientUnits="userSpaceOnUse">
<stop stop-color="#001449"/>
<stop offset="1" stop-color="#490035"/>
</linearGradient>
<linearGradient id="paint11_linear_133_10" x1="25" y1="0" x2="25" y2="50" gradientUnits="userSpaceOnUse">
<stop stop-color="#001449"/>
<stop offset="1" stop-color="#490035"/>
</linearGradient>
<clipPath id="clip0_133_10">
<rect width="50" height="50" fill="white"/>
</clipPath>
</defs>
</svg>
