<svg width="50" height="50" viewBox="0 0 50 50" fill="none" xmlns="http://www.w3.org/2000/svg">
<g id="confirm 3">
<g id="SVGRepo_iconCarrier">
<g id="Group">
<g id="Group_2">
<path id="Vector" d="M41.8443 8.18283C42.5436 8.18283 43.2493 8.42068 43.8293 8.90783C45.1315 9.99854 45.31 11.93 44.2293 13.2207L22.4436 39.2085C21.8486 39.9178 20.1343 41.8171 20.1343 41.8171C20.1343 41.8171 18.6679 40.3657 17.855 39.4535L5.99576 28.1993C4.77933 27.035 4.74361 25.0964 5.91719 23.8678C6.52576 23.2307 7.33933 22.9093 8.15147 22.9093C8.90719 22.9093 9.66076 23.1871 10.2472 23.7478L19.7908 32.7914L39.5129 9.2664C40.1115 8.5514 40.9729 8.18283 41.8443 8.18283ZM41.8443 5.32568C40.0922 5.32568 38.4436 6.09354 37.3222 7.4314L19.5522 28.6293L12.2122 21.6743C11.1229 20.6314 9.67719 20.0521 8.15219 20.0521C6.53719 20.0521 4.96933 20.7228 3.85147 21.8943C1.5929 24.26 1.66933 28.0143 4.02004 30.2635L15.8036 41.4471C16.675 42.4121 18.0629 43.7871 18.1229 43.8471C18.6586 44.3771 19.3815 44.6735 20.1329 44.6735C20.1593 44.6735 20.1858 44.6728 20.2129 44.6721C20.9936 44.6507 21.7308 44.31 22.2529 43.7314C22.325 43.6521 24.01 41.7843 24.6308 41.0435L46.4172 15.055C47.4336 13.8421 47.9129 12.3043 47.7665 10.725C47.6215 9.15497 46.8743 7.7314 45.6629 6.7164C44.595 5.81997 43.2379 5.32568 41.8443 5.32568Z" fill="url(#paint0_linear_137_13)" stroke="url(#paint1_linear_137_13)"/>
</g>
<g id="Group_3">
<path id="Vector_2" d="M38.9221 14.8307C38.7614 14.8307 38.6007 14.7772 38.4671 14.6665C38.1628 14.4143 38.1214 13.965 38.3728 13.6615L39.8464 11.8843C40.0978 11.5807 40.5478 11.5379 40.8514 11.79C41.1557 12.0422 41.1971 12.4915 40.9457 12.795L39.4728 14.5715C39.3314 14.7429 39.1278 14.8307 38.9221 14.8307Z" fill="url(#paint2_linear_137_13)" stroke="url(#paint3_linear_137_13)"/>
</g>
<g id="Group_4">
<path id="Vector_3" d="M30.2087 24.9221C30.0402 24.9221 29.8701 24.8628 29.7344 24.7414C29.4394 24.48 29.413 24.0278 29.6751 23.7335L36.6994 15.8314C36.9609 15.5357 37.413 15.5093 37.7073 15.7721C38.0023 16.0335 38.0287 16.4857 37.7666 16.78L30.7423 24.6821C30.6016 24.8407 30.4052 24.9221 30.2087 24.9221Z" fill="url(#paint4_linear_137_13)" stroke="url(#paint5_linear_137_13)"/>
</g>
</g>
</g>
</g>
<defs>
<linearGradient id="paint0_linear_137_13" x1="24.9992" y1="5.32568" x2="24.9992" y2="44.6735" gradientUnits="userSpaceOnUse">
<stop stop-color="#001449"/>
<stop offset="1" stop-color="#490035"/>
</linearGradient>
<linearGradient id="paint1_linear_137_13" x1="24.9992" y1="5.32568" x2="24.9992" y2="44.6735" gradientUnits="userSpaceOnUse">
<stop stop-color="#001449"/>
<stop offset="1" stop-color="#490035"/>
</linearGradient>
<linearGradient id="paint2_linear_137_13" x1="39.6593" y1="11.6256" x2="39.6593" y2="14.8307" gradientUnits="userSpaceOnUse">
<stop stop-color="#001449"/>
<stop offset="1" stop-color="#490035"/>
</linearGradient>
<linearGradient id="paint3_linear_137_13" x1="39.6593" y1="11.6256" x2="39.6593" y2="14.8307" gradientUnits="userSpaceOnUse">
<stop stop-color="#001449"/>
<stop offset="1" stop-color="#490035"/>
</linearGradient>
<linearGradient id="paint4_linear_137_13" x1="33.7209" y1="15.5911" x2="33.7209" y2="24.9221" gradientUnits="userSpaceOnUse">
<stop stop-color="#001449"/>
<stop offset="1" stop-color="#490035"/>
</linearGradient>
<linearGradient id="paint5_linear_137_13" x1="33.7209" y1="15.5911" x2="33.7209" y2="24.9221" gradientUnits="userSpaceOnUse">
<stop stop-color="#001449"/>
<stop offset="1" stop-color="#490035"/>
</linearGradient>
</defs>
</svg>
