<svg width="50" height="50" viewBox="0 0 50 50" fill="none" xmlns="http://www.w3.org/2000/svg">
<g id="refreshing-svgrepo-com 1" clip-path="url(#clip0_153_4)">
<g id="SVGRepo_iconCarrier">
<g id="Group">
<path id="Vector" d="M21.8176 41.0588C20.9463 41.0588 20.0721 40.9887 19.2199 40.8503C17.5248 40.5747 15.9282 41.726 15.6531 43.4208C15.3778 45.1156 16.5287 46.7126 18.2235 46.9877C19.4041 47.1794 20.6133 47.2767 21.8176 47.2767C23.5346 47.2767 24.9265 45.8849 24.9265 44.1678C24.9265 42.4508 23.5346 41.0588 21.8176 41.0588Z" fill="white" stroke="white" stroke-width="0.008"/>
<path id="Vector_2" d="M6.14415 28.514C5.77061 26.8381 4.10891 25.7828 2.43306 26.1563C0.757371 26.53 -0.298254 28.1916 0.0754351 29.8674C0.669855 32.5333 1.7404 35.0414 3.25723 37.3222C3.856 38.2226 4.84292 38.7099 5.8488 38.7099C6.44011 38.7099 7.03811 38.5415 7.56755 38.1894C8.99718 37.2386 9.38548 35.3089 8.43462 33.8791C7.34247 32.2367 6.57178 30.4315 6.14415 28.514Z" fill="white" stroke="white" stroke-width="0.008"/>
<path id="Vector_3" d="M9.17933 6.65344C6.93191 8.204 5.00704 10.1306 3.45865 12.3795C2.48479 13.7938 2.84201 15.7295 4.25624 16.7032C4.7947 17.074 5.40855 17.2518 6.0165 17.2518C7.00481 17.2518 7.97681 16.7814 8.57978 15.9057C9.69773 14.2819 11.0876 12.8908 12.7103 11.7711C14.1236 10.796 14.4787 8.85997 13.5036 7.44667C12.5288 6.03352 10.5929 5.67833 9.17933 6.65344Z" fill="white" stroke="white" stroke-width="0.008"/>
<path id="Vector_4" d="M49.8325 24.969C49.5694 24.4948 49.0402 24.2227 48.3812 24.2227H44.0795C44.0766 24.1355 44.073 24.0483 44.069 23.9611C44.0659 23.8935 44.0624 23.826 44.0587 23.7586C44.0525 23.6468 44.0452 23.5351 44.0374 23.4233C44.0331 23.362 44.0293 23.3008 44.0245 23.2397C44.0113 23.0714 43.9965 22.9032 43.9796 22.7355C43.9774 22.7137 43.9746 22.6922 43.9724 22.6705C43.9564 22.5164 43.9387 22.3627 43.9196 22.2093C43.9146 22.1692 43.909 22.1292 43.9039 22.0893C43.8852 21.9466 43.8653 21.8042 43.8439 21.6621C43.8394 21.6318 43.8349 21.6016 43.8301 21.5715C43.8215 21.5165 43.8139 21.4611 43.8049 21.4061C43.8022 21.3896 43.7974 21.3739 43.7945 21.3574C42.7791 15.2104 39.2396 9.90365 34.2784 6.54341C34.2268 6.50439 34.1768 6.46413 34.1221 6.42791C31.8398 4.91341 29.3308 3.8452 26.6643 3.25327C26.6436 3.2486 26.6231 3.24689 26.6024 3.2427C25.0604 2.90383 23.4597 2.72351 21.8174 2.72351C20.1003 2.72351 18.7085 4.11536 18.7085 5.8324C18.7085 7.54944 20.1003 8.9413 21.8174 8.9413C23.0613 8.9413 24.2726 9.08353 25.436 9.35245C25.5762 9.38478 25.7155 9.4196 25.8544 9.45551C31.9766 11.0466 36.6902 16.1681 37.6824 22.5071C37.7071 22.6663 37.7302 22.8259 37.7501 22.9863C37.7573 23.0434 37.7632 23.1009 37.7699 23.1583C37.787 23.3087 37.8024 23.4595 37.8154 23.6108C37.8189 23.6496 37.8227 23.6885 37.8258 23.7275C37.8388 23.8923 37.8478 24.0577 37.8557 24.2229H33.4585C32.7994 24.2229 32.2703 24.4949 32.0071 24.9692C31.7445 25.4421 31.7927 26.0326 32.1395 26.5894L39.5203 38.4354C39.8589 38.9788 40.3683 39.2903 40.9184 39.2903C41.4693 39.2903 41.9798 38.9779 42.3191 38.4332L49.7001 26.5894C50.0469 26.0324 50.0952 25.4419 49.8325 24.969Z" fill="white" stroke="white" stroke-width="0.008"/>
</g>
</g>
</g>
<defs>
<clipPath id="clip0_153_4">
<rect width="50" height="50" fill="white"/>
</clipPath>
</defs>
</svg>
